<?xml version="1.0" standalone="no"?>
<!DOCTYPE svg PUBLIC "-//W3C//DTD SVG 20010904//EN"
 "http://www.w3.org/TR/2001/REC-SVG-20010904/DTD/svg10.dtd">
<svg version="1.0" xmlns="http://www.w3.org/2000/svg"
 width="215.000000pt" height="215.000000pt" viewBox="0 0 215.000000 215.000000"
 preserveAspectRatio="xMidYMid meet">
<metadata>
Created by potrace 1.14, written by Peter Selinger 2001-2017
</metadata>
<g transform="translate(0.000000,215.000000) scale(0.100000,-0.100000)"
fill="#000000" stroke="none">
<path d="M945 1843 c-181 -145 -337 -268 -345 -273 -24 -14 -4 -23 27 -12 301
110 797 293 804 297 6 4 -141 242 -154 251 -1 0 -150 -118 -332 -263z"/>
<path d="M1316 1675 c-170 -63 -311 -117 -314 -120 -3 -3 159 -5 360 -5 l366
0 -37 120 c-25 85 -40 120 -51 119 -8 0 -154 -52 -324 -114z"/>
<path d="M233 1674 c-53 -13 -86 -43 -115 -103 l-23 -46 0 -645 c0 -698 -1
-691 55 -750 l28 -30 799 0 c608 0 802 3 811 12 8 8 12 57 12 154 l0 142 -103
4 c-89 3 -108 7 -148 30 -99 58 -159 155 -167 269 -6 87 11 155 57 226 61 94
136 133 276 142 l80 6 3 138 3 138 -30 29 -29 30 -746 0 -745 0 -15 22 c-22
32 -20 55 9 83 19 20 34 25 77 25 50 0 58 4 127 59 40 32 73 62 72 67 -1 13
-237 11 -288 -2z"/>
<path d="M1824 1682 c-7 -5 -4 -28 8 -69 15 -51 23 -64 44 -69 13 -3 29 -14
34 -24 6 -10 10 -93 10 -184 0 -126 3 -166 13 -166 6 0 35 13 62 28 l50 27 0
202 0 203 -26 26 c-23 22 -36 26 -105 29 -44 2 -84 1 -90 -3z"/>
<path d="M2025 1071 c-6 -5 -55 -34 -110 -64 -96 -52 -103 -55 -192 -59 -107
-6 -143 -22 -187 -86 -23 -32 -31 -56 -34 -102 -5 -70 8 -111 52 -158 48 -52
75 -62 169 -62 l84 0 122 67 121 66 0 204 c0 112 -4 203 -8 203 -4 0 -12 -4
-17 -9z m-310 -286 c29 -28 31 -51 9 -83 -31 -44 -104 -16 -104 41 0 19 42 67
60 67 6 0 22 -11 35 -25z"/>
<path d="M1978 488 l-58 -31 0 -123 c0 -76 4 -125 11 -129 6 -4 26 -4 45 0 60
11 74 48 74 193 0 67 -3 122 -7 122 -5 0 -34 -15 -65 -32z"/>
</g>
</svg>
